osimModel_states
version=1
nRows=33
nColumns=7
inDegrees=yes
endheader
time	q1	q2	q3	q1_u	q2_u	q3_u
      0.00000000	    -37.98864612	     75.97729221	      0.00000000	      0.00000000	      0.00000000	      0.00000000
      0.01000000	    -37.93021952	     75.86043900	      0.05842660	     11.67347125	    -23.34694249	     11.67347125
      0.06000000	    -35.96057987	     71.92115971	      2.02806625	     65.03283309	   -130.06566615	     65.03283307
      0.12709023	    -30.11236114	     60.22472226	      7.87628497	     98.82346674	   -197.64693346	     98.82346672
      0.16866160	    -26.28406483	     52.56812963	     11.70458129	     78.88715772	   -157.77431543	     78.88715770
      0.21272498	    -24.05325924	     48.10651845	     13.93538688	     16.67945764	    -33.35891527	     16.67945764
      0.24705866	    -24.50883889	     49.01767776	     13.47980722	    -42.19285837	     84.38571672	    -42.19285836
      0.28139234	    -26.74546685	     53.49093367	     11.24317927	    -83.90713420	    167.81426839	    -83.90713419
      0.31572602	    -29.95599527	     59.91199052	      8.03265084	    -98.72356812	    197.44713622	    -98.72356810
      0.36966388	    -34.90666993	     69.81333984	      3.08197618	    -77.41921075	    154.83842148	    -77.41921073
      0.42360173	    -37.73464661	     75.46929318	      0.25399951	    -24.11087599	     48.22175197	    -24.11087598
      0.47753958	    -37.35250509	     74.70501016	      0.63614102	     37.86226522	    -75.72453043	     37.86226521
      0.53147744	    -33.89826000	     67.79651997	      4.09038612	     86.01343306	   -172.02686610	     86.01343304
      0.59633822	    -27.72146031	     55.44292060	     10.26718580	     91.63422573	   -183.26845144	     91.63422571
      0.64499972	    -24.38365474	     48.76730945	     13.60499137	     37.09923469	    -74.19846938	     37.09923469
      0.68782554	    -24.36725255	     48.73450507	     13.62139357	    -36.35428144	     72.70856286	    -36.35428143
      0.72254790	    -26.47651694	     52.95303385	     11.51212918	    -81.03855028	    162.07710053	    -81.03855026
      0.75727026	    -29.67140366	     59.34280730	      8.31724245	    -98.43712546	    196.87425089	    -98.43712543
      0.81088464	    -34.65294763	     69.30589523	      3.33569849	    -79.80880080	    159.61760158	    -79.80880078
      0.86449901	    -37.64055450	     75.28110898	      0.34809162	    -28.11141113	     56.22282226	    -28.11141112
      0.91811338	    -37.48891275	     74.97782547	      0.49973337	     33.60706164	    -67.21412326	     33.60706162
      0.97172776	    -34.25189811	     68.50379620	      3.73674800	     83.27748886	   -166.55497769	     83.27748883
      1.05328331	    -26.63727746	     53.27455490	     11.35136865	     82.65491851	   -165.30983701	     82.65491849
      1.09917661	    -24.11124032	     48.22248062	     13.87740579	     20.88476901	    -41.76953802	     20.88476901
      1.13408885	    -24.44374399	     48.88748796	     13.54490212	    -39.16868980	     78.33737959	    -39.16868979
      1.16900109	    -26.64469900	     53.28939797	     11.34394712	    -82.67938765	    165.35877529	    -82.67938763
      1.20391333	    -29.88741371	     59.77482740	      8.10123240	    -98.53392572	    197.06785142	    -98.53392570
      1.25778130	    -34.84111745	     69.68223487	      3.14752867	    -77.92433110	    155.84866218	    -77.92433108
      1.31164926	    -37.70584903	     75.41169803	      0.28279709	    -25.05875810	     50.11751618	    -25.05875809
      1.36551722	    -37.37998761	     74.75997520	      0.60865850	     36.80184261	    -73.60368522	     36.80184260
      1.41938518	    -33.98090030	     67.96180057	      4.00774582	     85.27588296	   -170.55176589	     85.27588293
      1.48711601	    -27.55785196	     55.11570390	     10.43079415	     90.38942119	   -180.77884236	     90.38942117
      1.52938349	    -24.57689744	     49.15379485	     13.41174868	     44.12874593	    -88.25749184	     44.12874592
